Coordinates
version=1
nRows=6
nColumns=63
inDegrees=yes

Units are S.I. units (second, meters, Newtons, ...)
If the header above contains a line with 'inDegrees', this indicates whether rotational values are in degrees (yes) or radians (no).

endheader
time	pelvis_tilt	pelvis_list	pelvis_rotation	pelvis_tx	pelvis_ty	pelvis_tz	hip_flexion_r	hip_adduction_r	hip_rotation_r	knee_angle_r	knee_angle_r_beta	ankle_angle_r	subtalar_angle_r	mtp_angle_r	hip_flexion_l	hip_adduction_l	hip_rotation_l	knee_angle_l	knee_angle_l_beta	ankle_angle_l	subtalar_angle_l	mtp_angle_l	L5_S1_Flex_Ext	L5_S1_Lat_Bending	L5_S1_axial_rotation	L4_L5_Flex_Ext	L4_L5_Lat_Bending	L4_L5_axial_rotation	L3_L4_Flex_Ext	L3_L4_Lat_Bending	L3_L4_axial_rotation	L2_L3_Flex_Ext	L2_L3_Lat_Bending	L2_L3_axial_rotation	L1_L2_Flex_Ext	L1_L2_Lat_Bending	L1_L2_axial_rotation	L1_T12_Flex_Ext	L1_T12_Lat_Bending	L1_T12_axial_rotation	Abs_r3	Abs_r2	Abs_r1	Abs_t1	Abs_t2	neck_flexion	neck_bending	neck_rotation	arm_flex_r	arm_add_r	arm_rot_r	elbow_flex_r	pro_sup_r	wrist_flex_r	wrist_dev_r	arm_flex_l	arm_add_l	arm_rot_l	elbow_flex_l	pro_sup_l	wrist_flex_l	wrist_dev_l
      2.36666667	      3.38689010	     -3.99340530	     97.84888991	      0.13180899	      0.57656335	      0.86502381	     11.90537602	     -2.00474186	    -15.10059347	     10.19881811	      0.17800296	     28.17365577	     16.82595071	      0.00000000	     13.04952243	      2.82038042	     12.11257654	      8.25028549	      0.14399465	     20.56933151	    -13.45444287	      0.00000000	      0.32335970	     -0.17476407	     -0.11656162	      0.60051130	     -0.23243621	     -0.12384672	      0.53124765	     -0.42492135	     -0.12384672	      0.36956780	     -0.42492135	     -0.10199141	      0.30027182	     -0.35637888	     -0.09470631	      0.18476773	     -0.27070954	     -0.08742121	      2.30972599	     -1.97696607	     -0.64828074	      0.00000000	      0.00000000	     20.98254120	      0.13546127	      8.98086635	     29.59746187	     -5.14769754	     99.78893421	     34.65861150	     61.84546498	     -8.39358471	     -7.61288938	     18.17603235	     -6.71193732	     68.24982515	     38.81417260	     53.48719151	     -3.96502699	     -2.57032066
      2.38333333	      3.23170888	     -3.82535178	     97.59415392	      0.13225878	      0.57686180	      0.86506630	     11.76983018	     -2.10436658	    -14.93156817	     10.27489835	      0.17933081	     28.23616332	     16.99223693	      0.00000000	     12.86986758	      2.83852837	     10.78810951	      8.25476828	      0.14407289	     21.04559535	    -11.72834954	      0.00000000	      0.29012618	     -0.19211140	     -0.06450477	      0.53879333	     -0.25550817	     -0.06853632	      0.47664830	     -0.46709967	     -0.06853632	      0.33158521	     -0.46709967	     -0.05644167	      0.26941117	     -0.39175358	     -0.05241013	      0.16577810	     -0.29758057	     -0.04837858	      2.07234230	     -2.17320263	     -0.35875618	      0.00000000	      0.00000000	     20.97401212	      0.02058968	      8.75437166	     29.57565202	     -5.24575951	     99.48875687	     34.87462827	     60.49535468	     -7.94319548	     -7.81109562	     18.17170632	     -6.73211598	     68.06412986	     38.92309570	     52.78677627	     -4.21130187	     -2.10770089
      2.40000000	      3.15507324	     -4.00027924	     97.92328423	      0.13187607	      0.57665857	      0.86495670	     11.85296798	     -2.25977453	    -15.12527048	     10.26438885	      0.17914738	     28.15429939	     16.78329732	      0.00000000	     12.97746297	      3.11195104	     12.39111007	      8.06105664	      0.14069198	     20.29201463	    -13.62509671	      0.00000000	      0.32478156	     -0.20758878	     -0.14065915	      0.60315183	     -0.27609308	     -0.14945035	      0.53358362	     -0.50473137	     -0.14945035	      0.37119284	     -0.50473137	     -0.12307676	      0.30159216	     -0.42331505	     -0.11428556	      0.18558018	     -0.32155503	     -0.10549436	      2.31988219	     -2.34828585	     -0.78230399	      0.00000000	      0.00000000	     20.78758894	      0.18664823	      8.80572516	     29.60563202	     -5.09914738	     99.86546326	     34.80418683	     61.64066539	     -8.31301113	     -8.26471803	     18.15105456	     -6.85085535	     68.24536790	     38.88533632	     53.45402803	     -4.21911011	     -2.17143847
      2.41666667	      2.98183202	     -4.01602449	     97.95728436	      0.13195435	      0.57674081	      0.86487848	     11.81650712	     -2.46642594	    -15.29761604	     10.34891924	      0.18062271	     28.01702357	     16.78747549	      0.00000000	     12.95213804	      3.30883535	     12.34791746	      7.96581750	      0.13902974	     20.16615033	    -13.56535786	      0.00000000	      0.32510990	     -0.23192124	     -0.15115323	      0.60376159	     -0.30845524	     -0.16060030	      0.53412305	     -0.56389329	     -0.16060030	      0.37156810	     -0.56389329	     -0.13225907	      0.30189705	     -0.47293379	     -0.12281200	      0.18576780	     -0.35924600	     -0.11336492	      2.32222748	     -2.62353941	     -0.84066889	      0.00000000	      0.00000000	     20.75288472	      0.26734109	      8.73408261	     29.47552890	     -5.04137548	     99.37049485	     34.77102727	     62.04482158	     -7.97009075	     -8.40195392	     18.08580344	     -6.97809366	     68.03152630	     39.01974915	     53.51304917	     -4.27618523	     -1.78796817
      2.43333333	      2.80818836	     -4.02917731	     97.97483267	      0.13196114	      0.57682043	      0.86486359	     11.77904012	     -2.68160362	    -15.43310264	     10.45965620	      0.18255544	     27.78239927	     16.65167150	      0.00000000	     12.92708974	      3.50453826	     12.30684817	      7.88152019	      0.13755848	     20.03544151	    -13.55384833	      0.00000000	      0.32517753	     -0.25423279	     -0.15333836	      0.60388720	     -0.33812960	     -0.16292200	      0.53423417	     -0.61814159	     -0.16292200	      0.37164540	     -0.61814159	     -0.13417106	      0.30195986	     -0.51843150	     -0.12458742	      0.18580644	     -0.39380658	     -0.11500377	      2.32271060	     -2.87593211	     -0.85282194	      0.00000000	      0.00000000	     20.72595941	      0.33786075	      8.65765123	     29.45453892	     -4.97339810	     99.36973273	     34.73936265	     61.90296775	     -7.87998904	     -8.61203853	     18.15210157	     -7.06424757	     68.23469378	     39.06524070	     53.26357842	     -4.39596411	     -1.59666300
      2.45000000	      2.66698183	     -4.04858529	     98.06394405	      0.13183952	      0.57689015	      0.86487742	     11.72507003	     -2.89191854	    -15.79740355	     10.56653422	      0.18442081	     27.47186685	     16.59989533	      0.00000000	     12.94368236	      3.67327186	     12.13968943	      7.85706993	      0.13713174	     20.00319393	    -13.29921279	      0.00000000	      0.32504043	     -0.27242373	     -0.16303608	      0.60363257	     -0.36232356	     -0.17322584	      0.53400891	     -0.66237106	     -0.17322584	      0.37148870	     -0.66237106	     -0.14265657	      0.30183254	     -0.55552647	     -0.13246682	      0.18572810	     -0.42198436	     -0.12227706	      2.32173125	     -3.08171172	     -0.90675777	      0.00000000	      0.00000000	     20.72603089	      0.34945488	      8.55433300	     29.43475421	     -4.91521221	     99.36558127	     34.69392749	     62.04982057	     -8.02089111	     -8.69946328	     18.23918933	     -7.12317273	     68.48412761	     39.05772374	     53.21845921	     -4.43101955	     -1.58757770
